<svg width="95px" height="95px" viewBox="0 0 95 95" version="1.1" xmlns="http://www.w3.org/2000/svg" xmlns:xlink="http://www.w3.org/1999/xlink">
    <defs>
        <polygon id="path-1" points="0.303886926 0.152747845 0.455830389 0.152747845 0.455830389 0.30549569 0.303886926 0.30549569"></polygon>
        <polygon id="path-3" points="0 0 94.9974759 0 94.9974759 95 0 95"></polygon>
    </defs>
    <g id="Desktop-Mockups" stroke="none" stroke-width="1" fill="none" fill-rule="evenodd">
        <g id="Careers" transform="translate(-348.000000, -890.000000)">
            <g id="Relaxation-in-Mind" transform="translate(348.000000, 890.000000)">
                <g id="Group-14" transform="translate(0.000000, 33.000000)">
                    <g id="Group-3" transform="translate(0.000000, 61.404634)">
                        <mask id="mask-2" fill="white">
                            <use xlink:href="#path-1"></use>
                        </mask>
                        <g id="Clip-2"></g>
                        <path d="" id="Fill-1" fill="#F3AD51" mask="url(#mask-2)"></path>
                    </g>
                    <path d="M31.835711,50.5744448 C20.2943894,49.2592859 14.0671385,45.2270483 14.0671385,42.1012164 C14.0671385,41.0793333 13.2433011,40.25144 12.2271032,40.25144 C11.2109053,40.25144 10.3870678,41.0793333 10.3870678,42.1012164 C10.3870678,48.0253888 18.6436756,52.794482 31.4212092,54.250169 C31.491711,54.2584173 31.5616049,54.2620833 31.6305873,54.2620833 C32.5540996,54.2620833 33.3502834,53.5646366 33.4566438,52.6203495 C33.5712092,51.6054928 32.8455272,50.6896167 31.835711,50.5744448" id="Fill-4" fill="#F3AD51"></path>
                    <path d="M38.9248459,50.9694508 C37.9086481,50.9694508 37.0848106,51.7973441 37.0848106,52.8192272 C37.0848106,53.8404992 37.9086481,54.6686981 38.9248459,54.6686981 L38.9415597,54.6686981 C39.9577576,54.6686981 40.7733901,53.8404992 40.7733901,52.8192272 C40.7730862,51.7973441 39.9407399,50.9694508 38.9248459,50.9694508" id="Fill-6" fill="#F3AD51"></path>
                    <path d="M56.9865173,4.55051105 C56.9479237,4.51629553 56.9059873,4.482691 56.8643548,4.45183594 C56.052065,3.85000943 54.907323,4.01803206 54.3007647,4.83095609 C53.6984608,5.6383812 53.8522276,6.77971309 54.6395986,7.39803637 C54.974482,7.66198464 55.3750049,7.79182031 55.7743124,7.79182031 C56.2863618,7.79182031 56.7959802,7.57797333 57.1597329,7.16005523 C57.8288919,6.39173357 57.7514007,5.22321255 56.9865173,4.55051105" id="Fill-8" fill="#F3AD51"></path>
                    <path d="M50.6553371,1.58564483 C50.094058,1.42373211 49.5066445,1.27220625 48.9098106,1.13534418 C45.8894784,0.441257974 42.442489,0.0746631466 38.9414078,0.0746631466 C37.9252099,0.0746631466 37.1013724,0.902861961 37.1013724,1.92413405 C37.1013724,2.94601713 37.9252099,3.77391045 38.9414078,3.77391045 C42.171118,3.77391045 45.3345809,4.10873373 48.0902276,4.7417208 C48.6223336,4.86391907 49.1441074,4.99833718 49.6412664,5.14161466 C49.8108353,5.19049397 49.9813159,5.21371164 50.1493654,5.21371164 C50.9494996,5.21371164 51.6858177,4.68520409 51.9167717,3.87319655 C52.1969555,2.89133341 51.6323336,1.86700636 50.6553371,1.58564483" id="Fill-10" fill="#F3AD51"></path>
                    <path d="M85.6949279,60.4949897 C85.6943201,60.4965171 85.6934085,60.4977391 85.6928007,60.4992666 C85.6921929,60.5004886 85.6921929,60.5014051 85.691889,60.5020161 C85.6928007,60.4995721 85.6940163,60.4974336 85.6949279,60.4949897" id="Fill-12" fill="#F3AD51"></path>
                </g>
                <g id="Group-20">
                    <path d="M94.4137274,64.8080806 C94.4137274,64.8080806 94.413421,64.8077742 94.413421,64.8077742 C94.413421,64.8077742 94.413421,64.8080806 94.4137274,64.8080806 Z" id="Fill-15" fill="#F3AD51"></path>
                    <g id="Group-19">
                        <mask id="mask-4" fill="white">
                            <use xlink:href="#path-3"></use>
                        </mask>
                        <g id="Clip-18"></g>
                        <path d="M70.3198581,88.9754065 C76.0348742,96.4362774 84.4255194,94.8920677 84.7852935,94.8215839 C85.3690839,94.706971 85.8560355,94.3214548 86.1054871,93.7946645 C86.1061,93.7937452 86.1067129,93.7922129 86.1073258,93.7912935 C86.1076323,93.7903742 86.1082452,93.7891484 86.1085516,93.788229 C86.1088581,93.7873097 86.1088581,93.7863903 86.109471,93.7851645 C86.1419548,93.7165194 86.1701484,93.6460355 86.1937452,93.5731 C86.1621806,93.6705516 86.1300032,93.7441 86.1119226,93.7814871 C86.8063419,92.4021484 89.8586,85.4487613 84.9556806,78.3323419 C93.8158097,75.2019387 94.9398742,66.7460194 94.9840032,66.3816484 C95.0554065,65.791729 94.8396645,65.2097774 94.4158419,64.8098581 C94.4158419,64.8098581 94.4155355,64.8095516 94.415229,64.8092452 C94.4149226,64.8089387 94.4143097,64.8089387 94.4140032,64.8083258 C94.4136968,64.8083258 94.4136968,64.8080194 94.4136968,64.8080194 C94.3570032,64.7546968 94.2960194,64.7041323 94.231971,64.6575516 C94.3226806,64.7234387 94.3873419,64.7825839 94.4133903,64.8077129 C93.3374387,63.7394226 87.6656323,58.6612129 79.3693742,61.1204871 C79.1453581,52.5003097 72.6062935,48.6705839 71.2113258,47.950729 C70.7001645,47.6709387 70.0796,47.6451968 69.5399387,47.8961806 C69.5001,47.9145677 69.3548419,47.9838258 69.1305194,48.1064065 C70.2625516,46.3559548 70.8763742,44.4676 70.8763742,42.4888419 C70.8763742,35.7205516 63.7121484,30.0015516 53.0890032,27.2897613 C61.1336645,24.761229 66.4236323,20.1004065 66.4236323,14.6578258 C66.4233258,6.4384871 54.3616968,-6.12903226e-05 38.9634226,-6.12903226e-05 C23.5654548,-6.12903226e-05 11.5035194,6.4384871 11.5035194,14.6578258 C11.5035194,20.1004065 16.7934871,24.761229 24.8378419,27.2897613 C14.2153097,30.0015516 7.05047097,35.7205516 7.05047097,42.4888419 C7.05047097,48.9283097 13.5368258,54.4177774 23.3153903,57.2711484 C19.1320194,58.1773258 15.2753258,59.4521645 11.9215194,61.0619548 C4.23387419,64.7519387 -6.12903226e-05,69.8188097 -6.12903226e-05,75.329729 C-6.12903226e-05,80.8400355 4.23387419,85.9072129 11.9212129,89.5968903 C19.1755355,93.0794065 28.7794226,94.9965677 38.963729,94.9965677 C44.3303097,94.9965677 49.5044387,94.472229 54.3626161,93.4376484 C54.4281968,93.5801484 54.4864226,93.7008903 54.5339226,93.7952774 C54.7833742,94.3217613 55.2706323,94.7072774 55.8541161,94.8215839 C55.9632129,94.842729 56.811471,95.0000578 58.1004065,95.0000578 C61.0591968,95.0000578 66.3387452,94.1722129 70.3198581,88.9754065 M83.1650839,91.2771645 C81.1872452,91.3890194 76.4467452,91.1055516 73.0534065,86.4355355 C72.8162129,86.1085516 72.5974065,85.7726806 72.3948419,85.4319065 C74.104229,81.4008419 73.6375032,77.6872613 72.964229,75.3190032 C74.9341,75.4403581 77.8411,76.0995355 80.3555355,78.585471 C80.8348258,79.0589387 81.2865355,79.5863419 81.6990194,80.1545032 C85.0497613,84.7662935 83.9284548,89.3072935 83.1650839,91.2771645 M80.0809548,64.7850355 C85.5011645,63.0238581 89.4718581,65.4914065 91.1104548,66.8263097 C90.6020516,68.7302935 88.8558903,73.1695516 83.382971,74.9481968 C82.9980677,75.073229 82.6104065,75.1774226 82.2242774,75.2647613 C78.9173581,72.3948419 75.2396323,71.6930677 72.7812774,71.6032774 C73.505729,69.7636484 75.035229,67.1928258 78.1916806,65.5683258 C78.7843581,65.2634065 79.4199387,64.9998581 80.0809548,64.7850355 M70.3125032,51.7151806 C72.087471,52.8597774 75.6643742,55.8743419 75.6643742,61.5761806 C75.6643742,61.9767129 75.6447613,62.3735677 75.6089065,62.7646 C71.8524226,65.0197774 70.0446645,68.2994226 69.1964065,70.6128258 C67.6764065,69.3536161 65.7114387,67.1079387 65.1417452,63.6315516 C65.1414387,63.6294065 65.1417452,63.6272613 65.1411323,63.6248097 C65.0332613,62.9637935 64.9784065,62.2745839 64.9784065,61.5761806 C64.9784065,55.7995677 68.6521484,52.783471 70.3125032,51.7151806 M21.6884387,22.050971 C17.5740194,19.9937613 15.2143419,17.2991323 15.2143419,14.6578258 C15.2143419,12.0162129 17.5740194,9.32189032 21.6881323,7.26437419 C26.2714226,4.97272903 32.4068903,3.71076129 38.963729,3.71076129 C45.5205677,3.71076129 51.6560355,4.97272903 56.2393258,7.26437419 C60.3537452,9.32189032 62.7131161,12.0162129 62.7131161,14.6578258 C62.7131161,17.2991323 60.3537452,19.9937613 56.2393258,22.050971 C51.655729,24.3426161 45.5205677,25.6045839 38.963729,25.6045839 C32.4068903,25.6045839 26.271729,24.3426161 21.6884387,22.050971 M18.5396484,51.456229 C13.5962774,48.9850032 10.7616,45.7163903 10.7616,42.4888419 C10.7616,39.2616 13.5962774,35.9929871 18.5396484,33.5214548 C23.9641484,30.8090516 31.2172452,29.3157129 38.963729,29.3157129 C46.7099065,29.3157129 53.9633097,30.8090516 59.3878097,33.5214548 C64.3311806,35.9929871 67.1658581,39.2616 67.1658581,42.4888419 C67.1658581,45.7163903 64.3311806,48.9850032 59.3878097,51.456229 C53.9633097,54.1686323 46.7099065,55.6622774 38.963729,55.6622774 C31.2172452,55.6622774 23.9641484,54.1686323 18.5396484,51.456229 M63.5766968,53.3504065 C62.587471,54.911471 61.7735355,56.8430355 61.4361323,59.189229 C59.2879065,58.4375032 56.991971,57.7976323 54.5866323,57.2785032 C58.0403419,56.2730355 61.0834065,54.9393581 63.5766968,53.3504065 M53.2400839,89.880971 C48.736471,90.8125839 43.9420355,91.2860516 38.963729,91.2860516 C29.3239871,91.2860516 20.2907129,89.4982129 13.5273258,86.2516645 C7.28858387,83.2576323 3.71106774,79.2765194 3.71106774,75.329729 C3.71106774,71.3829387 7.28858387,67.4018258 13.5273258,64.4071806 C20.2907129,61.1609387 29.3239871,59.3731 38.963729,59.3731 C44.0024065,59.3731 48.9537452,59.882729 53.4978097,60.8397774 C49.5387613,61.7658742 46.9428097,64.0998097 46.2254065,64.8098581 C45.8015839,65.2097774 45.5855355,65.7920355 45.6572452,66.3825677 C45.7013742,66.7463258 46.8254387,75.2013258 55.6840355,78.3323419 C52.7163581,82.6404387 52.6636484,86.8887774 53.2400839,89.880971 M49.5286484,66.8278419 C51.1654065,65.4935516 55.1379387,63.0226323 60.5609065,64.784729 C60.9421323,64.9088419 61.3138581,65.050729 61.675471,65.2057935 C62.6601,69.4758903 65.2220355,72.2088258 67.1600355,73.7300516 C65.4947774,74.7885355 62.7581645,75.9604065 59.2682935,75.4284065 C59.2667613,75.4281 59.2655355,75.4274871 59.2643097,75.4271806 C58.5996161,75.3257452 57.9251161,75.1645516 57.2585839,74.9481968 C51.7645194,73.1628097 50.031229,68.7373419 49.5286484,66.8278419 M68.6619548,84.674971 C68.3597935,85.2759226 67.9975677,85.8682935 67.5856968,86.435229 C64.1902129,91.1086161 59.445729,91.3893258 57.4740194,91.2780839 C56.7109548,89.3085194 55.588729,84.7672129 58.9403903,80.1541968 C59.1791161,79.8256806 59.4322452,79.5121806 59.6951806,79.2133903 C60.1413742,79.2520032 60.5789871,79.2731484 61.0049548,79.2731484 C64.7347774,79.2731484 67.6485194,77.8643903 69.484471,76.6333742 C69.9781645,78.5437935 70.2502935,81.5130032 68.6628742,84.6731323 C68.6625677,84.6734387 68.6622613,84.6743581 68.6619548,84.674971" id="Fill-17" fill="#F3AD51" mask="url(#mask-4)"></path>
                    </g>
                </g>
            </g>
        </g>
    </g>
</svg>