<svg width="100px" height="98px" viewBox="0 0 100 98" version="1.1" xmlns="http://www.w3.org/2000/svg" xmlns:xlink="http://www.w3.org/1999/xlink">
    <g id="Desktop-Mockups" stroke="none" stroke-width="1" fill="none" fill-rule="evenodd">
        <g id="Careers" transform="translate(-996.000000, -889.000000)" fill="#F3AD51" stroke="#F3AD51">
            <g id="Superb-Satisfaction" transform="translate(997.000000, 890.000000)">
                <path d="M81.0406258,35.8929456 L71.9478065,35.8929456 C71.1438903,35.8929456 70.4923484,36.548526 70.4923484,37.3570327 C70.4923484,38.1652215 71.1438903,38.8208018 71.9478065,38.8208018 L81.0406258,38.8208018 C88.7873677,38.8208018 95.0894,45.1600923 95.0894,52.9517063 C95.0894,56.7255855 93.6276194,60.2740494 90.9743484,62.9434251 C88.3198129,65.6124829 84.792129,67.0822928 81.0406258,67.0822928 L78.2786065,67.0822928 C76.7795226,64.0059613 73.634671,61.8834324 70.0055097,61.8834324 L21.8002581,61.8834324 C21.7329226,61.5111314 21.6984645,61.1321538 21.6984645,60.7477714 C21.6984645,59.0566792 22.3534839,57.4663722 23.5408645,56.2699858 C24.7320387,55.0739172 26.3139484,54.4157934 27.9948065,54.4157934 L82.4714258,54.4157934 C83.2750258,54.4157934 83.9275161,53.7598951 83.9275161,52.9517063 C83.9275161,52.1431996 83.2750258,51.4876192 82.4714258,51.4876192 L27.9948065,51.4876192 C24.5224452,51.4876192 21.6984645,48.6459231 21.6984645,45.1530977 C21.6984645,43.4629594 22.3534839,41.8716986 23.5408645,40.6753122 C24.7320387,39.4798795 26.3139484,38.8208018 27.9948065,38.8208018 L66.1256581,38.8208018 C66.9295742,38.8208018 67.5814323,38.1652215 67.5814323,37.3570327 C67.5814323,36.548526 66.9295742,35.8935815 66.1256581,35.8935815 L50.6960323,35.8935815 C52.8134645,34.7499721 54.7759935,33.2919257 56.5143871,31.5442413 C61.6717161,26.3565086 64.2968516,19.1794614 63.7161226,11.8513956 C63.6601677,11.1350898 63.0936645,10.5656696 62.3814258,10.5087593 C56.6392581,10.0483906 50.9897161,11.5913254 46.3287097,14.8053224 C45.2974968,9.1845633 42.3957484,4.12241461 37.9927032,0.349807128 C37.448329,-0.116602376 36.6491548,-0.116602376 36.1047806,0.349807128 C31.7017355,4.12241461 28.7999871,9.18519917 27.7690903,14.8053224 C23.1074516,11.5922792 17.4585419,10.0483906 11.7163742,10.5087593 C11.0038194,10.5656696 10.4379484,11.1350898 10.3810452,11.8513956 C9.8,19.1794614 12.4251355,26.3565086 17.5834129,31.5442413 C19.6588,33.6317974 22.0544258,35.3057211 24.6511097,36.5237271 C23.4779548,36.9825062 22.4005871,37.684187 21.4825484,38.6058783 C19.7447871,40.3567421 18.7872323,42.681795 18.7872323,45.1530977 C18.7872323,48.4227333 20.4813677,51.2994021 23.0309484,52.9478911 C22.4783548,53.3052491 21.9589548,53.7223788 21.4825484,54.199916 C19.7447871,55.9504619 18.7872323,58.2761507 18.7872323,60.7477714 C18.7872323,61.1299283 18.8109419,61.5089059 18.8564645,61.8834324 L16.961271,61.8834324 C7.60859355,61.8834324 0,69.5361091 0,78.9412393 C0,88.3473233 7.60859355,96 16.961271,96 L26.0477677,96 C26.8513677,96 27.5035419,95.3437838 27.5035419,94.535277 C27.5035419,93.7270882 26.8513677,93.0718258 26.0477677,93.0718258 L16.961271,93.0718258 C9.21389677,93.0718258 2.91091613,86.7331712 2.91091613,78.9412393 C2.91091613,71.1496253 9.21389677,64.8116066 16.961271,64.8116066 L70.0055097,64.8116066 C73.4785032,64.8116066 76.3034323,67.6523489 76.3034323,71.1442204 C76.3034323,74.6373637 73.4785032,77.4777881 70.0055097,77.4777881 L15.5295226,77.4777881 C14.7259226,77.4777881 14.0743806,78.1330505 14.0743806,78.9412393 C14.0743806,79.749746 14.7259226,80.4050085 15.5295226,80.4050085 L70.0055097,80.4050085 C73.4785032,80.4050085 76.3034323,83.2460687 76.3034323,86.738894 C76.3034323,90.2310835 73.4785032,93.0718258 70.0055097,93.0718258 L31.8699161,93.0718258 C31.0663161,93.0718258 30.4147742,93.7277241 30.4147742,94.5362308 C30.4147742,95.3444196 31.0663161,96 31.8699161,96 L70.0064581,96 C75.0834903,96 79.2140323,91.8455535 79.2140323,86.738894 C79.2140323,83.4679868 77.5173677,80.5894103 74.9646258,78.9412393 C77.5173677,77.2937042 79.2140323,74.4154456 79.2140323,71.1442204 C79.2140323,70.759838 79.1877935,70.3818142 79.1429032,70.0098311 L81.0412581,70.0098311 C85.5701226,70.0098311 89.8290129,68.2357582 93.0326645,65.0134948 C96.2353677,61.7915494 98,57.5083396 98,52.9517063 C98,43.5456223 90.3923548,35.8929456 81.0406258,35.8929456 M60.8794968,13.3615831 C61.0125871,19.3838932 58.7095871,25.1957307 54.4551226,29.4735357 C50.6511419,33.300192 45.6288,35.5546636 40.3247871,35.8929456 L38.5731161,35.8929456 C38.5867097,35.1168681 38.5645806,34.3446059 38.5079935,33.5767948 C38.9407742,28.413543 41.1622129,23.5383396 44.8577613,19.8216886 C49.1122258,15.5435657 54.8888516,13.2299583 60.8794968,13.3615831 M37.0484258,3.43345115 C40.7885484,7.02165679 43.1196839,11.737893 43.6953548,16.8963758 C43.3909226,17.1739324 43.0918645,17.4581656 42.7994452,17.7513009 C40.2223613,20.3440545 38.2769032,23.4337393 37.0484258,26.7908067 C35.8202645,23.4337393 33.8751226,20.3440545 31.2974065,17.7513009 C31.0056194,17.4581656 30.705929,17.1739324 30.4014968,16.8963758 C30.9774839,11.737893 33.3086194,7.02165679 37.0484258,3.43345115 M13.2183032,13.3615831 C19.2019935,13.2283687 24.9852581,15.5435657 29.2390903,19.8216886 C32.9346387,23.5383396 35.1560774,28.413543 35.5891742,33.5767948 C35.532271,34.3446059 35.5104581,35.1168681 35.5240516,35.8929456 L33.7774387,35.8929456 C28.4724774,35.5546636 23.4466581,33.3008279 19.641729,29.4735357 C15.3872645,25.1957307 13.0852129,19.3838932 13.2183032,13.3615831" id="Fill-1"></path>
            </g>
        </g>
    </g>
</svg>