<?xml version="1.0" encoding="UTF-8"?>
<svg width="20px" height="20px" viewBox="0 0 20 20" version="1.1" xmlns="http://www.w3.org/2000/svg" xmlns:xlink="http://www.w3.org/1999/xlink">
    <!-- Generator: Sketch 64 (93537) - https://sketch.com -->
    <title>Shape</title>
    <desc>Created with Sketch.</desc>
    <g id="Desktop-Mockups" stroke="none" stroke-width="1" fill="none" fill-rule="evenodd">
        <g id="Packages" transform="translate(-538.000000, -1092.000000)" fill="#F3AD51" fill-rule="nonzero">
            <g id="Group-8" transform="translate(528.000000, 1082.000000)">
                <g id="Group-9">
                    <g id="tag-solid" transform="translate(10.000000, 10.000000)">
                        <path d="M0,9.84836418 L0,1.87500092 C0,0.839453535 0.839453535,0 1.87500092,0 L9.84836418,0 C10.3456443,0 10.8225563,0.197548478 11.1741851,0.549179956 L19.4508298,8.82582462 C20.1830567,9.55805154 20.1830567,10.7452396 19.4508298,11.4774665 L11.4774665,19.4508298 C10.7452396,20.1830567 9.55805154,20.1830567 8.82582462,19.4508298 L0.549179956,11.1741851 C0.197548478,10.8225563 0,10.3456443 0,9.84836418 Z M4.37500214,2.50000122 C3.33945476,2.50000122 2.50000122,3.33945476 2.50000122,4.37500214 C2.50000122,5.41054952 3.33945476,6.25000305 4.37500214,6.25000305 C5.41054952,6.25000305 6.25000305,5.41054952 6.25000305,4.37500214 C6.25000305,3.33945476 5.41054952,2.50000122 4.37500214,2.50000122 Z" id="Shape"></path>
                    </g>
                </g>
            </g>
        </g>
    </g>
</svg>